<svg xmlns="http://www.w3.org/2000/svg" width="16" height="16" viewBox="0 0 16 16"><path fill="#d3d7ff" d="M11.23 11.47a.26.26 0 0 0-.3.23c-.01.15.1.28.24.3 2.8.33 4.3 1.22 4.3 1.73 0 .73-2.84 1.74-7.47 1.74S.53 14.46.53 13.73c0-.51 1.5-1.4 4.3-1.73a.27.27 0 0 0 .23-.3.26.26 0 0 0-.3-.23C1.97 11.8 0 12.73 0 13.73 0 14.86 2.75 16 8 16s8-1.14 8-2.27c0-1-1.96-1.93-4.77-2.26zM7.95 14.6l4.1-5.91a5.82 5.82 0 0 0-.48-7.19A5.07 5.07 0 0 0 7.95 0C6.6 0 5.3.53 4.34 1.5a5.81 5.81 0 0 0-.48 7.18zM8 3.2a1.87 1.87 0 1 1-1.87 1.87c0-1.03.84-1.87 1.87-1.87z"/></svg>