<svg xmlns="http://www.w3.org/2000/svg" width="49" height="49" viewBox="0 0 49 49"><path fill="#fff" d="M48.16 43.04L34.72 29.53c.12-.18.21-.48.3-.88a18.8 18.8 0 0 0 2.66-9.73c0-2.1-.35-4.2-1.06-6.27A18.75 18.75 0 0 0 18.84 0 18.8 18.8 0 0 0 .64 14.08a19.03 19.03 0 0 0 4.89 18.31 18.79 18.79 0 0 0 23.7 2.44l.48-.31L43.2 48.09c.52.51 1.06.82 1.57.88.12.03.22.03.31.03.36-.03.69-.12.96-.28.37-.2.76-.51 1.18-.94l.6-.61c.43-.42.73-.82.94-1.18.15-.27.24-.64.24-1.1v-.24c0-.52-.32-1.08-.84-1.61zM33.82 22.99a15.47 15.47 0 0 1-4.05 7.03 15.33 15.33 0 0 1-10.93 4.56c-4.07 0-7.94-1.67-10.95-4.56-5.92-5.69-5.9-16.31 0-22.05a15.7 15.7 0 0 1 10.95-4.59c4.32 0 7.92 1.54 10.93 4.59a15.43 15.43 0 0 1 4.05 15.02zM20.69 10.98h-3.66v6.14h-6.09v3.68h6.09v6.18h3.66V20.8h6.12v-3.68h-6.12z"/></svg>