<svg xmlns="http://www.w3.org/2000/svg" width="29" height="28" viewBox="0 0 29 28"><path fill="#2132db" d="M28 22.3c.06.44-.07.83-.4 1.15l-3.8 3.78a2.8 2.8 0 0 1-2.03.77 13.39 13.39 0 0 1-4.73-1.1 24.97 24.97 0 0 1-4-2.2 29.75 29.75 0 0 1-4.74-4 31.32 31.32 0 0 1-3.32-3.77 26.92 26.92 0 0 1-2.12-3.33 18.04 18.04 0 0 1-1.2-2.78c-.27-.83-.45-1.54-.54-2.14a7.05 7.05 0 0 1-.09-1.99 2.78 2.78 0 0 1 .75-1.49l3.8-3.8c.27-.27.57-.4.92-.4.24 0 .46.07.65.21a2 2 0 0 1 .49.53l3.06 5.8c.17.31.22.65.14 1-.07.37-.24.68-.48.92l-1.4 1.4a.5.5 0 0 0-.1.2.71.71 0 0 0-.05.2c.08.4.25.86.52 1.38.23.46.58 1.02 1.06 1.67.47.66 1.15 1.42 2.03 2.28.85.87 1.62 1.56 2.28 2.04.67.49 1.23.84 1.68 1.07.45.23.79.37 1.03.42l.35.07.2-.04a.49.49 0 0 0 .18-.1l1.63-1.66c.34-.3.74-.46 1.2-.46.32 0 .58.06.77.17h.03l5.52 3.26c.4.25.64.57.71.95z"/></svg>