<svg xmlns="http://www.w3.org/2000/svg" width="49" height="39" viewBox="0 0 49 39"><path fill="#fff" d="M3.67 22.88a1 1 0 0 0 .87.85l6.63.86c.56.07 1.07-.32 1.14-.87a1 1 0 0 0-.88-1.13l-5.85-.76L3.85 9.89l8.68-3.79 1.15 7.93 1.49 10.33.28 1.94c.04.26.19.5.4.66.18.13.39.2.61.2l.15-.01 4.89-.69c.55-.08.94-.59.86-1.15l-.17-1.17 9.91-4.32a1 1 0 0 0 .6-1.07l-1.38-9.56c-.08-.55-.6-.93-1.16-.85-.55.08-.94.59-.86 1.14l1.27 8.8-8.68 3.78-1.73-11.94-.72-5 10.17 1.31c.56.07 1.07-.32 1.14-.87a1 1 0 0 0-.88-1.13L19.13 3.04l-.17-1.17a.99.99 0 0 0-.39-.67 1.03 1.03 0 0 0-.76-.19l-4.89.69c-.56.08-.94.6-.86 1.15l.17 1.17-9.92 4.33a1 1 0 0 0-.59 1.06zM17.09 3.15l1.17 8.09 1.8 12.43.14.93-2.87.41-1.56-10.73-1.41-9.79-.14-.93zm24.92 7.52H34.6a1 1 0 0 0-1.01 1.01v16.9a1 1 0 0 0 1.01 1.01h12.23a3.66 3.66 0 0 1-3.2 2.64 4.6 4.6 0 0 0-8 .01H13.97a4.6 4.6 0 0 0-8.02 0H2.04v-2.65h27.02a1 1 0 0 0 1.01-1.01c0-.55-.45-1.01-1.01-1.01H1.02c-.56 0-1.02.46-1.02 1.01v4.67c0 .56.46 1.01 1.02 1.01h4.36l-.01.19A4.58 4.58 0 0 0 9.96 39a4.58 4.58 0 0 0 4.59-4.55l-.01-.19h20.51v.19A4.57 4.57 0 0 0 39.64 39a4.57 4.57 0 0 0 4.58-4.55v-.26A5.66 5.66 0 0 0 49 28.63V17.59a6.96 6.96 0 0 0-6.99-6.92zM9.96 36.98a2.54 2.54 0 0 1-2.55-2.53 2.54 2.54 0 0 1 2.55-2.52 2.54 2.54 0 0 1 2.55 2.52c0 1.4-1.14 2.53-2.55 2.53zm29.68 0a2.54 2.54 0 0 1-2.55-2.53 2.54 2.54 0 0 1 2.55-2.52c1.4 0 2.54 1.13 2.54 2.52 0 1.4-1.14 2.53-2.54 2.53zm7.32-19.39v1.54h-7.48v-6.44h2.53c2.73 0 4.95 2.2 4.95 4.9zm-11.34-4.9h1.82v7.45a1 1 0 0 0 1.02 1.01h8.5v6.42H35.62z"/></svg>