<svg xmlns="http://www.w3.org/2000/svg" width="43" height="35" viewBox="0 0 43 35"><path fill="#fff" d="M42.28 9.5h-.71c0-.43-.29-.7-.72-.7s-.72.27-.72.7v5.67h-.71v-2.84c0-.42-.29-.7-.72-.7h-2.87c-.43 0-.71.28-.71.7v2.84h-1.36v-1.42c0-.07-.08-.14-.08-.21l-3.44-9.7A4.4 4.4 0 0 0 26.16 1h-6.38a4.26 4.26 0 0 0-4.08 2.83l-3.35 9.44c-.1.1-.15.24-.16.4v1.5h-1.44V5.96c0-.43-.29-.71-.72-.71H3.58a.77.77 0 0 0-.5.21L.22 8.3a.64.64 0 0 0-.22.5v7.78a2.86 2.86 0 0 0 2.87 2.84h3.58v9.19a3.5 3.5 0 0 0-1.43 2.85A3.53 3.53 0 0 0 8.6 35c2 0 3.58-1.56 3.58-3.54a3.5 3.5 0 0 0-1.43-2.85V16.58h1.43V18c0 .26.11.46.3.59l4.94 7.98a2.8 2.8 0 0 0 2.43 1.35h6.17c1 0 1.93-.5 2.58-1.35l5.08-8.22c0-.07.08-.21.08-.35v-1.42h1.36v12.03a3.5 3.5 0 0 0-1.44 2.85A3.53 3.53 0 0 0 37.27 35c2 0 3.58-1.56 3.58-3.54a3.5 3.5 0 0 0-1.43-2.85V16.58h.71v5.67c0 .42.29.7.72.7s.72-.28.72-.7V10.92h.71c.43 0 .72-.29.72-.71 0-.43-.29-.71-.72-.71zM2.87 18c-.8 0-1.44-.64-1.44-1.42v-.7h1.44c.43 0 .71-.29.71-.71 0-.43-.28-.71-.71-.71H1.43v-1.42h1.44c.43 0 .71-.28.71-.7 0-.43-.28-.72-.71-.72H1.43V9.07l2.44-2.4h2.58V18zM8.6 33.58a2.1 2.1 0 0 1-2.15-2.12c0-.72.33-1.34.86-1.72.09-.02.17-.05.22-.05a1.97 1.97 0 0 1 2.15 0c.08.05.18.08.27.1.5.38.8.98.8 1.67a2.1 2.1 0 0 1-2.15 2.12zm0-5.66c-.25 0-.49.02-.72.06V6.67h1.44v21.31a3.75 3.75 0 0 0-.72-.06zm5.02-13.46h18.63v2.83H13.62zm3.44-10.13a2.93 2.93 0 0 1 2.72-1.91h6.38c1.22 0 2.3.77 2.72 1.9l3.07 8.72H13.92zm10.17 21.46c-.28.43-.71.7-1.22.7h-6.16c-.5 0-.93-.27-1.22-.7l-4.44-7.08h17.48zm10.04 7.8a2.1 2.1 0 0 1-2.15-2.13c0-.7.3-1.29.8-1.67.1-.01.19-.05.27-.1a1.97 1.97 0 0 1 2.15 0c.1.04.16.06.24.06.51.39.84 1 .84 1.7a2.1 2.1 0 0 1-2.15 2.13zm.7-5.61a2.62 2.62 0 0 0-.7-.06c-.21 0-.49 0-.7.06h-.02V13.04h1.43v14.94h-.02z"/></svg>