<svg xmlns="http://www.w3.org/2000/svg" width="40" height="33" viewBox="0 0 40 33"><path fill="#fff" d="M39.98 8.04l-.01-.02c-.02-.05-.03-.1-.06-.14a.16.16 0 0 0-.04-.05l-.06-.09-.06-.05-.07-.05h-.01l-.02-.02-12-6.55a.66.66 0 0 0-.62-.01L.36 14.83l-.02.02-.04.01-.05.05-.06.04-.07.1-.03.04a.62.62 0 0 0-.05.13l-.02.03a.94.94 0 0 0-.02.17v11.15c0 .26.15.5.39.6l12.67 5.77h.03a.63.63 0 0 0 .42.03c.02 0 .03 0 .05-.02.03 0 .06-.01.08-.03l26-13.63a.67.67 0 0 0 .36-.6V8.22a.95.95 0 0 0-.02-.17zM27.32 2.4l10.56 5.77-24.56 12.08-11.11-4.89zM1.33 16.47l11.34 5.25v9.58L1.33 26.14zM14 31.23v-9.46L38.67 9.29v9z"/></svg>