<svg xmlns="http://www.w3.org/2000/svg" width="34" height="34" viewBox="0 0 34 34"><path fill="#fff" d="M32.9 5.17H31.4V1.11c0-.61-.5-1.11-1.1-1.11h-4.44c-.61 0-1.1.5-1.1 1.11v4.06h-4.44V1.11c0-.61-.5-1.11-1.11-1.11h-4.44c-.61 0-1.1.5-1.1 1.11v4.06H9.23V1.11C9.24.5 8.74 0 8.13 0H3.7c-.62 0-1.11.5-1.11 1.11v4.06H1.1C.5 5.17 0 5.67 0 6.28v26.61C0 33.5.5 34 1.1 34h31.8c.6 0 1.1-.5 1.1-1.11V6.28c0-.61-.5-1.11-1.1-1.11zm-5.92-2.95h2.21v2.95h-2.21zm-8.87 0v2.95h-2.22V2.22zm-13.3 0h2.21v2.95H4.8zM2.2 16.26h18.12v6.65H2.22zm0 15.52v-6.65h29.57v6.65zm29.57-8.87h-9.24v-6.65h9.24zM2.22 14.04V7.39h29.56v6.65z"/></svg>