<svg xmlns="http://www.w3.org/2000/svg" width="75" height="74" viewBox="0 0 75 74"><path fill="#2b3bdf" d="M17.8 26.79C8 26.79 0 34.83 0 44.65a17.9 17.9 0 0 0 16.52 17.82v10.25c0 .77.51 1.28 1.28 1.28.76 0 1.27-.51 1.27-1.28V62.47a17.9 17.9 0 0 0 16.52-17.82c0-9.82-8-17.86-17.8-17.86zm1.27 33.12v-4.54l3.43-3.44c.5-.51.5-1.28 0-1.79a1.23 1.23 0 0 0-1.78 0l-2.92 2.93-2.93-2.93a1.23 1.23 0 0 0-1.78 0c-.5.51-.5 1.28 0 1.79l3.44 3.44v4.54A15.33 15.33 0 0 1 2.54 44.65c0-8.42 6.87-15.31 15.26-15.31s15.25 6.89 15.25 15.31c0 8-6.18 14.61-13.98 15.26zm49.57-41.67c-.5-5.48-4.32-7.4-7.88-7.4-4.83 0-7.5 2.94-8.39 4.21-3.05.39-5.34 3.19-5.34 6.51 0 3.57 2.8 6.51 6.1 6.51h14.75c2.54 0 4.58-2.17 4.58-4.98a4.85 4.85 0 0 0-3.82-4.85zm-.76 7.28H53.13c-2.03 0-3.55-1.79-3.55-3.96s1.65-3.95 3.55-3.95c.51 0 .9-.26 1.15-.64 0-.26 1.9-3.57 6.48-3.57 1.9 0 5.34.76 5.34 5.99 0 .77.51 1.28 1.27 1.28h.51c1.14 0 2.03 1.02 2.03 2.42 0 1.41-.89 2.43-2.03 2.43zM12.71 70.17c-.76 0-1.27.51-1.27 1.28v1.27c0 .77.5 1.28 1.27 1.28.76 0 1.27-.51 1.27-1.28v-1.27c0-.77-.5-1.28-1.27-1.28zm-5.08 0c-.77 0-1.27.51-1.27 1.28v1.27c0 .77.5 1.28 1.27 1.28.76 0 1.27-.51 1.27-1.28v-1.27c0-.77-.51-1.28-1.27-1.28zm-5.09 0c-.76 0-1.27.51-1.27 1.28v1.27c0 .77.51 1.28 1.27 1.28s1.27-.51 1.27-1.28v-1.27c0-.77-.5-1.28-1.27-1.28zm30.51 0c-.76 0-1.27.51-1.27 1.28v1.27c0 .77.5 1.28 1.27 1.28.76 0 1.27-.51 1.27-1.28v-1.27c0-.77-.5-1.28-1.27-1.28zm-5.08 0c-.77 0-1.28.51-1.28 1.28v1.27c0 .77.51 1.28 1.28 1.28.76 0 1.27-.51 1.27-1.28v-1.27c0-.77-.51-1.28-1.27-1.28zm-5.09 0c-.76 0-1.27.51-1.27 1.28v1.27c0 .77.5 1.28 1.27 1.28.76 0 1.27-.51 1.27-1.28v-1.27c0-.77-.5-1.28-1.27-1.28zm50.85 0c-.76 0-1.27.51-1.27 1.28v1.27c0 .77.5 1.28 1.27 1.28.76 0 1.27-.51 1.27-1.28v-1.27c0-.77-.5-1.28-1.27-1.28zm-5.09 0c-.76 0-1.27.51-1.27 1.28v1.27c0 .77.51 1.28 1.27 1.28.77 0 1.28-.51 1.28-1.28v-1.27c0-.77-.51-1.28-1.28-1.28zm-30.5 0c-.77 0-1.28.51-1.28 1.28v1.27c0 .77.51 1.28 1.27 1.28.77 0 1.28-.51 1.28-1.28v-1.27c0-.77-.51-1.28-1.28-1.28zm12.7 0c-.76 0-1.26.51-1.26 1.28v1.27c0 .77.5 1.28 1.27 1.28.76 0 1.27-.51 1.27-1.28v-1.27c0-.77-.51-1.28-1.27-1.28zm5.1 0c-.77 0-1.28.51-1.28 1.28v1.27c0 .77.5 1.28 1.27 1.28.76 0 1.27-.51 1.27-1.28v-1.27c0-.77-.5-1.28-1.27-1.28zm12.83-3.83v-2.29a5.39 5.39 0 0 0-5.21-5.36v-2.55h2.54c.76 0 1.27-.51 1.27-1.28 0-.76-.5-1.27-1.27-1.27h-2.54v-2.56h2.54c.76 0 1.27-.51 1.27-1.27 0-.77-.5-1.28-1.27-1.28h-2.54v-1.27c0-.77-.5-1.28-1.27-1.28-.76 0-1.27.51-1.27 1.28v1.27H45.76v-1.27c0-.77-.5-1.28-1.27-1.28-.76 0-1.27.51-1.27 1.28v1.27h-2.54c-.76 0-1.27.51-1.27 1.28 0 .76.5 1.27 1.27 1.27h2.54v2.56h-2.54c-.76 0-1.27.51-1.27 1.27 0 .77.5 1.28 1.27 1.28h2.54v2.56a5.38 5.38 0 0 0-5.09 5.35v2.29c0 .77.51 1.28 1.28 1.28h3.81v5.1c0 .77.5 1.28 1.27 1.28.76 0 1.27-.51 1.27-1.28v-5.1h15.26v5.1c0 .77.5 1.28 1.27 1.28.76 0 1.27-.51 1.27-1.28v-5.1h3.81c.77 0 1.27-.51 1.4-1.28zm-23-7.65v-2.55h15.25v2.55zm15.25-7.66v2.56H45.76v-2.56zM40.68 64.05a2.83 2.83 0 0 1 2.8-2.81H63.3c1.52 0 2.8 1.28 2.8 2.81v1.02H40.67zM35.59 0a8.84 8.84 0 0 0-7.76 4.52 7.62 7.62 0 0 0-6.22-3.25c-.76 0-1.27.52-1.27 1.28 0 .77.5 1.28 1.27 1.28a5.1 5.1 0 0 1 5.08 5.1c0 .77.51 1.28 1.28 1.28.76 0 1.27-.51 1.27-1.28a6.3 6.3 0 0 1 6.35-6.38c.77 0 1.27-.51 1.27-1.28 0-.76-.5-1.27-1.27-1.27z"/></svg>