<svg xmlns="http://www.w3.org/2000/svg" width="77" height="66" viewBox="0 0 77 66"><path fill="#2b3bdf" d="M76.74 29.64a1 1 0 0 0-1.44-.08l-2.01 1.8-10.85-10.8c-.4-.4-1.05-.4-1.45 0-.39.41-.39 1.05.01 1.45l10.77 10.72-5.33 4.8L48.7 19.51 66.33 2.77c.41-.39.43-1.04.04-1.45a1.01 1.01 0 0 0-1.44-.04L46.54 18.74c-.2.19-.31.45-.32.72 0 .28.1.54.3.74l1.63 1.66-3.6 3.78-6.94-.74a.99.99 0 0 0-.83.29l-2.82 2.8-5.24-5.19 1.76-1.8c.19-.2.3-.46.3-.74a1.04 1.04 0 0 0-.32-.72L12.07 2.08a1.01 1.01 0 0 0-1.44.04c-.39.41-.37 1.06.04 1.45l12.4 11.78L4.9 33.24l-3.2-2.88a1.02 1.02 0 0 0-1.44.08c-.37.42-.34 1.06.08 1.44l9.58 8.63c.19.18.44.26.68.26.27 0 .53-.1.73-.3l1.73-1.77 9.55 9.45-1.76 1.79c-.39.4-.39 1.04.01 1.44l3.58 3.59 3.58 3.55 3.57 3.59 3.58 3.59a1.02 1.02 0 0 0 1.44 0l1.85-1.86 1.89 1.86a1 1 0 0 0 1.43 0l2.86-2.87.42.43a1.02 1.02 0 0 0 1.44 0l2.86-2.87.42.42c.2.2.46.3.72.3.26 0 .53-.1.73-.3l2.85-2.86.42.42a1.02 1.02 0 0 0 1.44 0l3.58-3.59c.4-.4.4-1.05 0-1.45L54.21 48l9.6-10.22 1.86 1.89a1 1 0 0 0 1.41.04l9.58-8.63c.42-.38.45-1.02.08-1.44zm-51.61.57a4.48 4.48 0 0 1-7.15 3.57l6.25-6.27c.58.77.9 1.71.9 2.7zm.54-4.15l1.71-1.71.92.91-1.88 1.93c-.21-.4-.46-.78-.75-1.13zM10.56 38.33l-4.14-3.72 18.14-17.86 3.74 3.56zm5.97-3.1c.36.3.75.56 1.17.77l-1 1.03-1.18 1.23-1.01-1zm7.53 14.36l2.14 2.12-1.05 1.08-2.13-2.14zm4.67 6.76l-2.13-2.11 1.06-1.09 2.15 2.12zm2.53.36l2.15 2.13-1.1 1.1-2.13-2.15zm4.63 6.82l-2.13-2.15 1.1-1.11 2.15 2.13zm19.33-7.34l-.42-.42-4.12-4.13-1.25-1.26c-.4-.4-1.04-.4-1.44 0-.4.4-.4 1.05 0 1.45l4.65 4.67-2.14 2.14-5.79-5.82c-.4-.4-1.04-.4-1.44 0-.4.4-.4 1.05 0 1.45l1.25 1.26 3.4 3.41-2.14 2.14-3.35-3.36-1.19-1.19-1.25-1.26c-.4-.4-1.04-.4-1.44 0-.4.4-.4 1.05 0 1.45l2.34 2.35 2.31 2.31-2.14 2.15-24.09-23.84 1.2-1.23 1.72-1.78a6.5 6.5 0 0 0 7.23-7.27l2.63-2.71 2.76 2.74-9.63 9.58a1 1 0 0 0-.3.78c.02.3.16.57.38.75.24.19 5.83 4.44 15.53-5.43l18.87 18.93zm-2.46-9.64L39.2 32.94a.96.96 0 0 0-.74-.3 1 1 0 0 0-.73.32c-6.26 6.68-10.45 6.88-12.34 6.45l12.48-12.43 4.9.53-.74.77c-.39.41-.37 1.06.04 1.45.4.39 1.05.37 1.44-.04l5.86-6.15 12.88 12.91zm1.79-29.4a3.2 3.2 0 1 0 6.39.01 3.2 3.2 0 0 0-6.39-.01zm4.34 0c0 .64-.52 1.16-1.15 1.16a1.16 1.16 0 0 1 0-2.31c.63 0 1.15.52 1.15 1.15z"/></svg>