<svg xmlns="http://www.w3.org/2000/svg" width="69" height="69" viewBox="0 0 69 69"><path fill="#2b3bdf" d="M35.41 42.75c-.25-.55-.9-.78-1.45-.52-.88.42-1.8.77-2.75 1.03-.4.11-.7.43-.78.84l-1.15 5.76c-.11.57-.62.98-1.2.98h-3.14c-.58 0-1.08-.41-1.2-.98L22.6 44.1a1.08 1.08 0 0 0-.78-.84A17.57 17.57 0 0 1 18 41.68c-.36-.21-.8-.19-1.14.04l-4.9 3.26c-.47.32-1.12.26-1.53-.15L8.19 42.6a1.22 1.22 0 0 1-.15-1.54l3.26-4.89c.23-.34.24-.78.04-1.14a17.22 17.22 0 0 1-1.58-3.82c-.11-.4-.44-.7-.84-.78l-5.76-1.15a1.22 1.22 0 0 1-.98-1.2v-3.14c0-.58.41-1.09.98-1.2l5.76-1.15c.4-.08.73-.38.84-.78.37-1.33.9-2.62 1.58-3.82.2-.36.19-.8-.04-1.14l-3.26-4.89a1.22 1.22 0 0 1 .15-1.54l2.23-2.23a1.23 1.23 0 0 1 1.54-.15l4.89 3.26c.34.23.78.24 1.14.04 1.2-.68 2.49-1.21 3.82-1.58.4-.11.7-.44.78-.84l1.15-5.76c.12-.57.62-.98 1.2-.98h3.14c.58 0 1.09.41 1.2.98l1.15 5.76c.08.4.38.73.78.84 1.33.37 2.62.9 3.82 1.58.36.2.8.19 1.14-.04l4.9-3.26a1.23 1.23 0 0 1 1.53.15l2.23 2.23c.4.41.47 1.05.15 1.54l-3.26 4.89a1.1 1.1 0 0 0-.04 1.14c.68 1.2 1.2 2.49 1.58 3.82.11.4.44.7.84.78l5.76 1.15c.57.11.98.62.98 1.2v3.14c0 .58-.41 1.09-.98 1.2l-5.76 1.15c-.4.08-.73.38-.84.78-.27.96-.63 1.91-1.06 2.82a1.1 1.1 0 0 0 1.96.94c.4-.82.73-1.66 1-2.53l5.13-1.02a3.41 3.41 0 0 0 2.73-3.34v-3.14a3.41 3.41 0 0 0-2.73-3.34l-5.12-1.02a19.27 19.27 0 0 0-1.27-3.07l2.9-4.34a3.4 3.4 0 0 0-.43-4.29l-2.23-2.23a3.4 3.4 0 0 0-4.29-.42l-4.34 2.89a19.9 19.9 0 0 0-3.07-1.27l-1.02-5.12A3.41 3.41 0 0 0 28.08 0h-3.14a3.41 3.41 0 0 0-3.34 2.73l-1.02 5.12c-1.06.34-2.09.76-3.07 1.27l-4.34-2.89a3.4 3.4 0 0 0-4.3.42L6.66 8.88a3.4 3.4 0 0 0-.42 4.29l2.9 4.34c-.51.98-.94 2.01-1.28 3.07L2.73 21.6A3.41 3.41 0 0 0 0 24.94v3.14a3.41 3.41 0 0 0 2.73 3.34l5.12 1.02c.34 1.06.77 2.08 1.28 3.07l-2.9 4.34a3.4 3.4 0 0 0 .42 4.29l2.23 2.23a3.4 3.4 0 0 0 4.29.42l4.34-2.89c.99.51 2.01.93 3.07 1.27l1.02 5.12a3.41 3.41 0 0 0 3.34 2.73h3.14a3.41 3.41 0 0 0 3.34-2.73l1.02-5.12c.84-.27 1.66-.59 2.46-.97.54-.26.77-.91.51-1.45zm.54-10.19c.16.09.33.12.5.12.39 0 .77-.21.96-.59a12.27 12.27 0 0 0-10.9-17.83 12.2 12.2 0 0 0-8.55 3.48 1.09 1.09 0 0 0 1.52 1.56 10.08 10.08 0 0 1 16 11.8c-.28.53-.07 1.19.47 1.46zM16.3 21.85c-.57-.2-1.19.11-1.38.67A12.28 12.28 0 0 0 26.5 38.76c2.6 0 5.08-.81 7.18-2.33a1.09 1.09 0 1 0-1.28-1.76 10.08 10.08 0 0 1-15.42-11.44c.2-.57-.1-1.19-.68-1.38zm50.6 25.76l-3.16-.63a13.2 13.2 0 0 0-.69-1.66l1.78-2.68a2.61 2.61 0 0 0-.32-3.29l-1.46-1.46a2.62 2.62 0 0 0-3.3-.32l-2.67 1.78c-.54-.27-1.1-.5-1.66-.69l-.63-3.15a2.61 2.61 0 0 0-2.56-2.1h-2.07c-1.24 0-2.31.88-2.56 2.1l-.63 3.15c-.57.19-1.12.42-1.66.69l-2.68-1.78a2.6 2.6 0 0 0-3.29.32l-1.46 1.46a2.61 2.61 0 0 0-.32 3.29l1.78 2.68c-.37.74-.67 1.51-.9 2.31-.15.58.18 1.18.76 1.34.58.17 1.18-.17 1.35-.75.23-.85.57-1.67 1-2.43.2-.36.19-.8-.04-1.14l-2.14-3.22a.43.43 0 0 1 .05-.54l1.46-1.46a.44.44 0 0 1 .54-.05l3.22 2.14c.34.23.78.24 1.14.04a10.7 10.7 0 0 1 2.43-1c.4-.11.7-.44.77-.84l.76-3.79c.04-.2.22-.34.42-.34h2.07c.2 0 .38.14.42.34l.76 3.79c.08.4.38.73.77.84.85.23 1.67.57 2.43 1 .36.2.8.19 1.14-.04l3.21-2.14c.17-.11.4-.09.55.05l1.46 1.46c.14.15.16.37.05.54l-2.14 3.22a1.1 1.1 0 0 0-.04 1.14c.43.76.77 1.58 1 2.43.11.39.44.69.84.77l3.79.76c.2.04.34.22.34.42v2.07c0 .2-.14.38-.34.42l-3.8.76c-.4.08-.72.38-.83.77-.23.85-.57 1.67-1 2.43-.2.36-.19.8.04 1.14l2.14 3.21c.11.17.1.4-.05.55l-1.46 1.46a.44.44 0 0 1-.55.05l-3.2-2.14a1.07 1.07 0 0 0-1.15-.04c-.76.43-1.58.77-2.43 1-.4.11-.7.44-.77.84l-.76 3.79a.44.44 0 0 1-.42.34h-2.07a.44.44 0 0 1-.42-.34L49 62.69a1.1 1.1 0 0 0-.77-.84 10.7 10.7 0 0 1-2.43-1c-.36-.21-.8-.19-1.14.04l-3.22 2.14a.44.44 0 0 1-.54-.05l-1.46-1.46a.44.44 0 0 1-.05-.55l2.14-3.21c.23-.34.24-.78.04-1.14-.43-.76-.77-1.58-1-2.43-.11-.4-.44-.69-.84-.77l-3.79-.76a.43.43 0 0 1-.34-.42v-2.07c0-.2.14-.38.34-.42l.24-.05a1.08 1.08 0 1 0-.43-2.13l-.23.04a2.62 2.62 0 0 0-2.1 2.56v2.07c0 1.24.88 2.31 2.1 2.56l3.15.63c.19.57.42 1.12.69 1.66l-1.78 2.68a2.61 2.61 0 0 0 .32 3.29l1.46 1.46a2.62 2.62 0 0 0 3.3.32l2.67-1.78c.54.27 1.1.5 1.66.69l.63 3.15a2.61 2.61 0 0 0 2.56 2.1h2.07c1.24 0 2.31-.88 2.56-2.1l.63-3.15a12.6 12.6 0 0 0 1.66-.69l2.68 1.78c1.03.69 2.41.55 3.29-.32l1.46-1.46a2.61 2.61 0 0 0 .32-3.29l-1.78-2.68c.27-.54.5-1.09.7-1.67l3.14-.62a2.62 2.62 0 0 0 2.1-2.56v-2.07c0-1.24-.88-2.31-2.1-2.56zm-15.7-.33a3.93 3.93 0 0 1 3.92 3.93c0 .6.49 1.08 1.09 1.08.6 0 1.09-.48 1.09-1.08a6.11 6.11 0 1 0-2.38 4.83 1.1 1.1 0 0 0-1.33-1.73 3.91 3.91 0 0 1-6.32-3.1 3.93 3.93 0 0 1 3.93-3.93zM33.15 26.51a6.65 6.65 0 1 0-13.3.01 6.65 6.65 0 0 0 13.3-.01zm-11.1 0a4.46 4.46 0 1 1 8.93 0 4.46 4.46 0 0 1-8.93 0z"/></svg>