<svg style="position: absolute; width: 0; height: 0; overflow: hidden;" version="1.1" xmlns="http://www.w3.org/2000/svg" xmlns:xlink="http://www.w3.org/1999/xlink">
<defs>
<symbol id="icon-time-work" viewBox="0 0 32 32">
<title>time-work</title>
<path fill="#d3d7ff" style="fill: var(--color1, #d3d7ff)" d="M16 0c-8.837 0-16 7.163-16 16s7.163 16 16 16c8.837 0 16-7.163 16-16s-7.163-16-16-16zM22.912 19.051h-6.784l-0.064-0.021-0.064 0.021c-0.613 0-1.109-0.497-1.109-1.109v-11.307c0-0.597 0.491-1.109 1.109-1.109s1.109 0.512 1.109 1.109v10.197h5.803c0.619 0 1.109 0.491 1.109 1.109 0 0.597-0.491 1.109-1.109 1.109z"></path>
</symbol>
<symbol id="icon-mail" viewBox="0 0 45 32">
<title>mail</title>
<path fill="#d3d7ff" style="fill: var(--color1, #d3d7ff)" d="M17.067 17.547l-16.053 13.573c0.587 0.533 1.387 0.88 2.24 0.88h38.827c0.853 0 1.653-0.347 2.213-0.88l-16-13.573-5.627 4.853zM42.080 0h-38.827c-0.853 0-1.653 0.32-2.187 0.88l21.6 18.32 21.653-18.347c-0.587-0.533-1.387-0.853-2.24-0.853zM0 29.387l15.653-13.147-15.653-13.44zM45.333 29.387v-26.587l-15.653 13.44z"></path>
</symbol>
<symbol id="icon-locate" viewBox="0 0 32 32">
<title>locate</title>
<path fill="#d3d7ff" style="fill: var(--color1, #d3d7ff)" d="M22.46 22.94c-0.025-0.004-0.054-0.007-0.083-0.007-0.268 0-0.489 0.203-0.517 0.464-0.020 0.302 0.2 0.562 0.48 0.602 5.6 0.66 8.6 2.44 8.6 3.46 0 1.46-5.68 3.48-14.94 3.48s-14.94-2.020-14.94-3.48c0-1.020 3-2.8 8.6-3.46 0.264-0.039 0.464-0.263 0.464-0.535 0-0.023-0.001-0.046-0.004-0.068-0.028-0.261-0.249-0.464-0.517-0.464-0.029 0-0.058 0.002-0.086 0.007-5.577 0.66-9.517 2.52-9.517 4.52 0 2.26 5.5 4.54 16 4.54s16-2.28 16-4.54c0-2-3.92-3.86-9.54-4.52zM15.9 29.2l8.2-11.82c1.276-1.841 2.039-4.122 2.039-6.581 0-3.005-1.139-5.744-3.008-7.809-1.829-1.843-4.376-2.99-7.191-2.99-0.014 0-0.028 0-0.042 0-2.698 0-5.298 1.060-7.218 3-1.859 2.052-2.997 4.787-2.997 7.789 0 2.456 0.762 4.734 2.062 6.61zM16 6.4c2.066 0 3.74 1.674 3.74 3.74s-1.674 3.74-3.74 3.74c-2.066 0-3.74-1.674-3.74-3.74 0-2.060 1.68-3.74 3.74-3.74z"></path>
</symbol>
<symbol id="icon-search" viewBox="0 0 32 32">
<title>search</title>
<path fill="#fff" style="fill: var(--color2, #fff)" d="M30.853 29.267l-7.56-7.6c1.866-2.112 3.007-4.902 3.013-7.959 0-6.828-5.747-12.375-12.827-12.375-7.067 0-12.813 5.547-12.813 12.373 0 6.84 5.747 12.4 12.813 12.4 2.653 0 5.187-0.787 7.347-2.253l7.613 7.653c0.31 0.306 0.737 0.495 1.208 0.495 0.45 0 0.86-0.173 1.167-0.456 0.652-0.612 0.679-1.639 0.039-2.279zM13.48 4.56c0.044-0.001 0.096-0.001 0.149-0.001 5.089 0 9.227 4.074 9.331 9.138-0.097 5.090-4.237 9.171-9.332 9.171-0.052 0-0.104-0-0.156-0.001-0.036 0.001-0.088 0.001-0.14 0.001-5.091 0-9.229-4.083-9.319-9.153 0.097-5.081 4.232-9.156 9.318-9.156 0.052 0 0.104 0 0.156 0.001z"></path>
</symbol>
<symbol id="icon-product-6" viewBox="0 0 32 32">
<title>product-6</title>
<path fill="#fff" style="fill: var(--color2, #fff)" d="M2.397 18.207c0.043 0.292 0.275 0.519 0.565 0.555l4.333 0.562c0.366 0.046 0.699-0.209 0.745-0.568 0.004-0.027 0.006-0.058 0.006-0.089 0-0.335-0.253-0.611-0.578-0.649l-3.823-0.497-1.13-7.798 5.669-2.475 0.751 5.179 1.156 8.013c0.026 0.17 0.124 0.327 0.261 0.431 0.118 0.085 0.255 0.131 0.398 0.131l0.098-0.007 3.193-0.451c0.359-0.052 0.614-0.385 0.562-0.751l-0.111-0.764 6.472-2.821c0.236-0.102 0.399-0.333 0.399-0.602 0-0.034-0.003-0.068-0.008-0.101l-0.901-6.24c-0.052-0.359-0.392-0.607-0.758-0.555-0.359 0.052-0.614 0.385-0.562 0.745l0.829 5.747-5.669 2.469-1.13-7.798-0.47-3.265 6.642 0.856c0.366 0.046 0.699-0.209 0.744-0.568 0.004-0.027 0.006-0.058 0.006-0.089 0-0.335-0.253-0.611-0.578-0.649l-7.017-0.908-0.111-0.764c-0.023-0.18-0.117-0.334-0.253-0.436-0.112-0.083-0.251-0.132-0.401-0.132-0.034 0-0.068 0.003-0.101 0.008l-3.19 0.45c-0.366 0.052-0.614 0.392-0.562 0.751l0.111 0.764-6.478 2.828c-0.233 0.103-0.392 0.332-0.392 0.599 0 0.033 0.002 0.065 0.007 0.097zM11.161 5.322l0.764 5.283 1.175 8.118 0.091 0.607-1.874 0.268-1.019-7.007-0.921-6.393-0.091-0.607zM27.435 10.233h-4.839c-0.002-0-0.004-0-0.007-0-0.361 0-0.653 0.292-0.653 0.653 0 0.002 0 0.005 0 0.007v11.036c-0 0.002-0 0.004-0 0.007 0 0.361 0.292 0.653 0.653 0.653 0.002 0 0.005 0 0.007-0h7.987c-0.276 0.942-1.091 1.634-2.081 1.723-0.536-0.912-1.507-1.517-2.62-1.517-1.115 0-2.088 0.607-2.606 1.509l-14.153 0.015c-0.525-0.921-1.5-1.532-2.619-1.532s-2.094 0.611-2.611 1.517l-2.561 0.015v-1.731h17.646c0.002 0 0.004 0 0.007 0 0.361 0 0.653-0.292 0.653-0.653 0-0.002 0-0.005-0-0.007 0-0.359-0.294-0.659-0.66-0.659h-18.312c-0.366 0-0.666 0.3-0.666 0.66v3.050c0 0.366 0.3 0.66 0.666 0.66h2.847l-0.007 0.124c0.011 1.643 1.346 2.971 2.991 2.971 0.002 0 0.005 0 0.007 0s0.004 0 0.006 0c1.645 0 2.98-1.328 2.991-2.97l-0.007-0.125h13.394v0.124c0.007 1.643 1.341 2.971 2.984 2.971 0.005 0 0.009 0 0.014-0 0.001 0 0.004 0 0.006 0 1.644 0 2.977-1.329 2.984-2.971v-0.171c1.773-0.287 3.111-1.801 3.122-3.63v-7.211c-0.015-2.499-2.044-4.519-4.545-4.519-0.007 0-0.014 0-0.021 0zM6.505 27.416c-0.002 0-0.004 0-0.007 0-0.914 0-1.655-0.739-1.659-1.652 0.007-0.911 0.747-1.646 1.659-1.646 0.002 0 0.005 0 0.007 0s0.004 0 0.006 0c0.912 0 1.651 0.735 1.659 1.645 0 0.915-0.745 1.653-1.665 1.653zM25.887 27.416c-0.002 0-0.004 0-0.007 0-0.914 0-1.655-0.739-1.659-1.652 0.007-0.911 0.747-1.646 1.659-1.646 0.002 0 0.005 0 0.007 0 0.914 0 1.658 0.738 1.658 1.646 0 0.914-0.744 1.652-1.659 1.652zM30.668 14.753v1.006h-4.885v-4.206h1.652c1.783 0 3.233 1.437 3.233 3.2zM23.262 11.553h1.189v4.865c-0 0.002-0 0.004-0 0.007 0 0.361 0.292 0.653 0.653 0.653 0.005 0 0.009-0 0.014-0h5.55v4.193h-7.406z"></path>
</symbol>
<symbol id="icon-product-5" viewBox="0 0 32 32">
<title>product-5</title>
<path fill="#fff" style="fill: var(--color2, #fff)" d="M30.965 4.866h-1.412v-3.821c0-0.574-0.471-1.045-1.035-1.045h-4.179c-0.574 0-1.035 0.471-1.035 1.045v3.821h-4.179v-3.821c0-0.574-0.471-1.045-1.045-1.045h-4.179c-0.574 0-1.035 0.471-1.035 1.045v3.821h-4.179v-3.821c0.009-0.574-0.461-1.045-1.035-1.045h-4.169c-0.584 0-1.045 0.471-1.045 1.045v3.821h-1.402c-0.565 0-1.035 0.471-1.035 1.045v25.045c0 0.574 0.471 1.045 1.035 1.045h29.929c0.565 0 1.035-0.471 1.035-1.045v-25.045c0-0.574-0.471-1.045-1.035-1.045zM25.393 2.089h2.080v2.776h-2.080zM17.045 2.089v2.776h-2.089v-2.776zM4.527 2.089h2.080v2.776h-2.089zM2.071 15.304h17.054v6.259h-17.035zM2.071 29.911v-6.259h27.831v6.259zM29.901 21.562h-8.696v-6.259h8.696zM2.089 13.214v-6.259h27.821v6.259z"></path>
</symbol>
<symbol id="icon-product-4" viewBox="0 0 32 32">
<title>product-4</title>
<path fill="#fff" style="fill: var(--color2, #fff)" d="M26.374 13.202l5.626-3.155-16-8.938-16 8.938 5.626 3.155-5.626 3.14 5.626 3.163-5.626 3.14 16 8.982 16-8.982-5.626-3.14 5.626-3.163zM16 2.426l13.648 7.62-13.648 7.665-13.648-7.665zM6.802 13.864l9.198 5.172 9.206-5.172 4.443 2.486-13.648 7.665-13.648-7.665zM29.648 22.646l-13.648 7.665-13.648-7.665 4.45-2.486 9.198 5.172 9.198-5.172z"></path>
</symbol>
<symbol id="icon-product-3" viewBox="0 0 32 32">
<title>product-3</title>
<path fill="#fff" style="fill: var(--color2, #fff)" d="M31.984 9.232l-0.008-0.016c-0.016-0.040-0.024-0.080-0.048-0.112-0.008-0.016-0.019-0.029-0.032-0.040l-0.048-0.072-0.048-0.040-0.056-0.040h-0.008l-0.016-0.016-9.6-5.24c-0.074-0.042-0.162-0.066-0.256-0.066-0.088 0-0.171 0.021-0.243 0.059l-21.469 11.111-0.056 0.080-0.024 0.032c-0.016 0.030-0.030 0.064-0.039 0.101l-0.017 0.027c-0.009 0.040-0.015 0.087-0.016 0.135l-0 8.921c0 0.208 0.12 0.4 0.312 0.48l10.136 4.616h0.024c0.059 0.027 0.129 0.042 0.202 0.042 0.048 0 0.094-0.007 0.138-0.019 0.012 0.001 0.020 0.001 0.036-0.015 0.024 0 0.048-0.008 0.064-0.024l20.8-10.904c0.172-0.091 0.288-0.27 0.288-0.475 0-0.002 0-0.003-0-0.005v-8.376c-0.001-0.049-0.007-0.096-0.017-0.141zM21.856 4.72l8.448 4.616-19.648 9.664-8.888-3.912zM1.064 15.976l9.072 4.2v7.664l-9.072-4.128zM11.2 27.784v-7.568l19.736-9.984v7.2z"></path>
</symbol>
<symbol id="icon-product-2" viewBox="0 0 32 32">
<title>product-2</title>
<path fill="#fff" style="fill: var(--color2, #fff)" d="M15.004 11.316h-8v8.204h-7.004v10.258h32v-26.667h-17.004zM9.004 13.36h12.996v6.16h-13.004zM14.996 27.724h-12.987v-6.151h13.004zM30 27.724h-13.004v-6.151h13.004zM30 19.52h-6v-6.151h6zM16.996 5.164h13.004v6.151h-13.004z"></path>
</symbol>
<symbol id="icon-product-1" viewBox="0 0 32 32">
<title>product-1</title>
<path fill="#fff" style="fill: var(--color2, #fff)" d="M31.464 10.046h-0.528c0-0.32-0.216-0.521-0.536-0.521s-0.536 0.201-0.536 0.521v4.22h-0.528v-2.114c0-0.313-0.216-0.521-0.536-0.521h-2.136c-0.32 0-0.528 0.208-0.528 0.521v2.114h-1.012v-1.057c0-0.052-0.060-0.104-0.060-0.156l-2.56-7.219c-0.479-1.238-1.655-2.102-3.035-2.113h-4.749c-0.015-0-0.032-0-0.050-0-1.369 0-2.536 0.868-2.979 2.084l-2.5 7.047c-0.074 0.074-0.112 0.179-0.119 0.298v1.116h-1.072v-6.854c0-0.32-0.216-0.528-0.536-0.528h-4.8c-0.145 0.006-0.275 0.064-0.372 0.157l-2.128 2.113c-0.101 0.088-0.164 0.216-0.164 0.36 0 0.004 0 0.009 0 0.013v5.789c0.008 1.169 0.958 2.114 2.128 2.114 0.003 0 0.005 0 0.008 0h2.664v6.839c-0.648 0.479-1.064 1.241-1.064 2.1 0 0.007 0 0.014 0 0.022 0 0.001-0 0.004-0 0.007 0 1.451 1.176 2.627 2.627 2.627 0.013 0 0.026-0 0.039-0 1.486 0 2.662-1.161 2.662-2.634 0-0.006 0-0.013 0-0.021 0-0.859-0.416-1.621-1.057-2.095l-0.007-8.958h1.064v1.057c0 0.194 0.082 0.342 0.223 0.439l3.676 5.939c0.372 0.606 1.031 1.005 1.783 1.005 0.009 0 0.018-0 0.027-0h4.59c0.744 0 1.436-0.372 1.92-1.005l3.78-6.117c0-0.052 0.060-0.156 0.060-0.26v-1.057h1.012v8.953c-0.653 0.479-1.072 1.244-1.072 2.106 0 0.005 0 0.011 0 0.016 0 0.002 0 0.004 0 0.007 0 1.451 1.176 2.627 2.627 2.627 0.016 0 0.031-0 0.047-0 1.486 0 2.662-1.161 2.662-2.634 0-0.006 0-0.013 0-0.021 0-0.859-0.416-1.621-1.057-2.095l-0.007-8.958h0.528v4.22c0 0.313 0.216 0.521 0.536 0.521s0.536-0.208 0.536-0.521v-8.432h0.528c0.32 0 0.536-0.216 0.536-0.528 0-0.32-0.216-0.528-0.536-0.528zM2.136 16.372c-0.595 0-1.072-0.476-1.072-1.057v-0.521h1.072c0.32 0 0.528-0.216 0.528-0.528 0-0.32-0.208-0.528-0.528-0.528h-1.072v-1.057h1.072c0.32 0 0.528-0.208 0.528-0.521 0-0.32-0.208-0.536-0.528-0.536h-1.072v-1.898l1.816-1.786h1.92v8.432zM6.4 27.966c-0.011 0-0.024 0-0.037 0-0.863 0-1.563-0.7-1.563-1.563 0-0.005 0-0.011 0-0.016 0-0.535 0.246-0.996 0.64-1.279 0.067-0.015 0.127-0.037 0.164-0.037 0.226-0.149 0.502-0.238 0.8-0.238s0.574 0.089 0.806 0.241c0.054 0.034 0.128 0.056 0.195 0.071 0.372 0.283 0.595 0.729 0.595 1.243 0 0.005 0 0.010 0 0.015 0 0.863-0.7 1.563-1.563 1.563-0.013 0-0.026-0-0.039-0zM6.4 23.754c-0.186 0-0.365 0.015-0.536 0.045v-15.859h1.072v15.859c-0.15-0.029-0.322-0.045-0.499-0.045-0.013 0-0.026 0-0.039 0zM10.136 13.738h13.864v2.106h-13.864zM12.696 6.199c0.315-0.831 1.101-1.413 2.023-1.421h4.749c0.908 0 1.712 0.573 2.024 1.414l2.285 6.489h-13.418zM20.264 22.169c-0.208 0.32-0.528 0.521-0.908 0.521h-4.584c-0.372 0-0.692-0.201-0.908-0.521l-3.304-5.269h13.008zM27.736 27.974c-0.011 0-0.024 0-0.037 0-0.863 0-1.563-0.7-1.563-1.563 0-0.008 0-0.016 0-0.024 0-0.52 0.223-0.959 0.595-1.242 0.074-0.007 0.141-0.037 0.201-0.074 0.226-0.149 0.502-0.238 0.8-0.238s0.574 0.089 0.805 0.241c0.069 0.026 0.114 0.041 0.173 0.041 0.38 0.29 0.625 0.744 0.625 1.265 0 0.007 0 0.015 0 0.023 0 0.863-0.7 1.563-1.563 1.563-0.013 0-0.026-0-0.039-0zM28.257 23.799c-0.128-0.030-0.275-0.047-0.425-0.047-0.034 0-0.067 0.001-0.1 0.003-0.152-0-0.36-0-0.516 0.044h-0.015v-11.118h1.064v11.118h-0.015z"></path>
</symbol>
<symbol id="icon-phone" viewBox="0 0 32 32">
<title>phone</title>
<path fill="#fff" style="fill: var(--color2, #fff)" d="M30.897 25.159c0.066 0.486-0.077 0.916-0.441 1.269l-4.193 4.171c-0.553 0.527-1.304 0.852-2.13 0.852-0.039 0-0.077-0.001-0.115-0.002-1.9-0.090-3.681-0.528-5.308-1.251-1.603-0.71-3.053-1.521-4.414-2.451-1.865-1.279-3.577-2.732-5.125-4.342-1.319-1.277-2.52-2.636-3.61-4.082-0.863-1.15-1.638-2.351-2.325-3.608-0.551-1.016-0.998-2.029-1.36-3.083-0.34-1.056-0.538-1.839-0.638-2.501-0.086-0.435-0.136-0.935-0.136-1.446 0-0.264 0.013-0.525 0.039-0.782 0.105-0.613 0.401-1.176 0.826-1.612l4.192-4.192c0.298-0.298 0.629-0.441 1.015-0.441 0.265 0 0.508 0.077 0.717 0.232 0.214 0.162 0.394 0.355 0.535 0.576l3.382 6.409c0.188 0.342 0.243 0.717 0.154 1.103-0.077 0.408-0.265 0.75-0.53 1.015l-1.545 1.545c-0.051 0.062-0.089 0.136-0.11 0.217-0.028 0.068-0.048 0.143-0.056 0.221 0.088 0.445 0.276 0.952 0.573 1.526 0.254 0.508 0.64 1.126 1.17 1.843 0.519 0.728 1.269 1.567 2.24 2.516 0.938 0.96 1.788 1.721 2.516 2.251 0.739 0.541 1.357 0.927 1.854 1.181s0.872 0.408 1.137 0.463l0.386 0.077 0.221-0.044c0.077-0.024 0.143-0.062 0.199-0.111l1.798-1.831c0.375-0.331 0.817-0.508 1.324-0.508 0.353 0 0.64 0.066 0.85 0.188h0.033l6.091 3.597c0.441 0.276 0.706 0.629 0.783 1.048z"></path>
</symbol>
<symbol id="icon-magnifier" viewBox="0 0 32 32">
<title>magnifier</title>
<path fill="#fff" style="fill: var(--color2, #fff)" d="M31.451 28.108l-8.777-8.823c0.078-0.118 0.137-0.313 0.196-0.575 1.091-1.798 1.737-3.972 1.737-6.296 0-0.020-0-0.041-0-0.061 0-1.368-0.229-2.74-0.692-4.092-1.704-4.848-6.243-8.261-11.579-8.261-0.011 0-0.023 0-0.034 0 0.001 0 0.001 0 0 0-5.685 0-10.468 3.864-11.865 9.109-0.285 1.045-0.438 2.146-0.438 3.284 0 3.418 1.38 6.513 3.613 8.76 2.223 2.24 5.305 3.627 8.71 3.627 2.52 0 4.863-0.76 6.811-2.063l0.269-0.174 8.81 8.862c0.34 0.333 0.692 0.535 1.025 0.575 0.078 0.020 0.144 0.020 0.202 0.020 0.235-0.020 0.451-0.078 0.627-0.183 0.242-0.131 0.496-0.333 0.771-0.614l0.392-0.398c0.281-0.274 0.477-0.535 0.614-0.771 0.098-0.176 0.157-0.418 0.157-0.718v-0.157c0-0.34-0.209-0.705-0.549-1.051zM22.087 15.014c-0.485 1.807-1.406 3.358-2.644 4.591-1.817 1.839-4.338 2.978-7.125 2.978-0.005 0-0.009 0-0.014 0-2.657 0-5.185-1.091-7.15-2.978-3.866-3.716-3.853-10.651 0-14.4 1.833-1.831 4.356-2.971 7.146-2.998 2.826-0 5.177 1.006 7.143 2.998 1.85 1.828 2.997 4.365 2.997 7.17 0 0.939-0.128 1.848-0.369 2.71zM13.512 7.171h-2.39v4.010h-3.977v2.403h3.977v4.036h2.39v-4.036h3.997v-2.403h-3.997z"></path>
</symbol>
<symbol id="icon-arrow-right" viewBox="0 0 32 32">
<title>arrow-right</title>
<path fill="#fff" style="fill: var(--color2, #fff)" d="M24.829 13.76l-13.178-13.135c-0.389-0.384-0.923-0.621-1.513-0.621s-1.124 0.237-1.513 0.621c-0.391 0.385-0.633 0.921-0.633 1.512s0.242 1.127 0.633 1.512l11.651 11.622-11.651 11.622c-0.391 0.385-0.633 0.921-0.633 1.513s0.242 1.127 0.633 1.512c0.829 0.844 2.197 0.844 3.026 0l13.178-13.135c0.387-0.387 0.627-0.922 0.627-1.513s-0.24-1.126-0.627-1.513z"></path>
</symbol>
<symbol id="icon-arrow-left" viewBox="0 0 32 32">
<title>arrow-left</title>
<path fill="#fff" style="fill: var(--color2, #fff)" d="M7.171 13.76l13.178-13.135c0.389-0.384 0.923-0.621 1.513-0.621s1.124 0.237 1.513 0.621c0.843 0.843 0.843 2.196-0 3.025l-11.651 11.622 11.651 11.622c0.844 0.844 0.844 2.196 0 3.025-0.829 0.844-2.196 0.844-3.025 0l-13.178-13.135c-0.387-0.387-0.627-0.922-0.627-1.513s0.24-1.126 0.627-1.513z"></path>
</symbol>
<symbol id="icon-acces" viewBox="0 0 32 32">
<title>acces</title>
<path fill="#04cc5c" style="fill: var(--color3, #04cc5c)" d="M16 0c-8.824 0-16 7.176-16 16s7.176 16 16 16 16-7.176 16-16-7.176-16-16-16zM16 29.904c-7.675-0.009-13.895-6.229-13.904-13.903 0.009-7.676 6.229-13.896 13.903-13.905 7.676 0.009 13.896 6.229 13.905 13.903-0.009 7.676-6.229 13.896-13.903 13.905zM21.792 10.76l-8.248 8.248-3.336-3.328c-0.19-0.191-0.453-0.309-0.744-0.309-0.58 0-1.049 0.47-1.049 1.049 0 0.289 0.117 0.55 0.305 0.74l4.080 4.080c0.192 0.188 0.454 0.303 0.744 0.303s0.552-0.116 0.744-0.304l-0-0.008 8.984-8.984c0.191-0.19 0.309-0.453 0.309-0.744 0-0.58-0.47-1.049-1.049-1.049-0.289 0-0.55 0.117-0.74 0.305z"></path>
</symbol>
</defs>
</svg>
